<?xml version="1.0" standalone="no"?>
<!DOCTYPE svg PUBLIC "-//W3C//DTD SVG 20010904//EN"
 "http://www.w3.org/TR/2001/REC-SVG-20010904/DTD/svg10.dtd">
<svg version="1.0" xmlns="http://www.w3.org/2000/svg"
 width="180.000000pt" height="180.000000pt" viewBox="0 0 180.000000 180.000000"
 preserveAspectRatio="xMidYMid meet">

<g transform="translate(0.000000,180.000000) scale(0.100000,-0.100000)"
fill="#000000" stroke="none">
<path d="M845 1690 c-11 -5 -49 -9 -85 -9 -69 -1 -108 -18 -162 -68 l-27 -25
-27 21 c-32 25 -57 27 -74 6 -11 -13 -9 -19 10 -37 l23 -21 -50 -23 c-49 -21
-83 -55 -83 -81 0 -7 7 -13 15 -13 11 0 7 -11 -14 -42 -39 -57 -45 -82 -26
-102 13 -13 14 -22 5 -56 -12 -45 -7 -75 15 -84 8 -3 15 -13 15 -23 0 -10 8
-30 18 -44 9 -14 34 -51 55 -83 21 -31 47 -82 59 -114 12 -31 28 -64 35 -73
18 -22 6 -49 -22 -49 -18 0 -30 -13 -54 -57 -17 -31 -31 -66 -31 -78 0 -14
-16 -33 -45 -54 -125 -90 -230 -212 -284 -333 -26 -57 -61 -191 -61 -233 0
-13 70 -15 636 -15 l636 0 -7 33 c-24 122 -78 240 -134 296 -34 34 -37 41 -24
54 13 13 13 18 0 43 -9 16 -43 59 -77 97 -56 61 -61 69 -52 95 6 18 15 26 28
24 10 -1 51 -5 89 -8 63 -5 73 -3 98 18 21 17 30 36 36 75 4 29 13 58 19 66 6
7 14 42 18 78 6 58 9 67 35 82 35 20 38 53 8 91 -19 24 -21 36 -16 87 6 49 4
61 -12 76 -10 10 -21 36 -24 58 -6 38 -5 41 23 52 28 10 43 43 20 43 -5 0 -10
7 -10 15 0 8 6 12 14 9 9 -3 21 5 31 20 15 22 16 31 5 57 -7 17 -24 38 -37 46
-15 10 -22 22 -18 33 7 22 -31 70 -55 70 -9 0 -23 -7 -30 -15 -19 -23 -30 -18
-30 13 0 36 -37 72 -74 72 -25 0 -27 -3 -22 -25 7 -28 6 -29 -28 -14 -13 6
-27 20 -29 30 -6 23 -41 25 -90 4 -49 -20 -67 -19 -67 5 0 22 -28 26 -65 10z
m287 -350 c7 0 20 5 28 10 13 9 13 12 -2 24 -24 18 -22 24 6 19 13 -3 27 -14
29 -25 5 -16 11 -19 31 -14 24 6 26 2 42 -50 13 -47 14 -64 5 -96 -10 -33 -15
-37 -27 -27 -8 6 -12 20 -9 29 8 25 -16 40 -71 46 -41 5 -55 2 -83 -18 -54
-36 -51 -48 11 -42 44 4 50 3 34 -7 -18 -11 -265 -33 -274 -24 -3 3 12 23 33
46 33 37 37 46 33 84 -7 54 15 73 51 44 28 -23 54 -24 71 -4 10 12 9 16 -4 21
-13 5 -13 9 6 24 22 17 23 17 49 -11 15 -16 33 -29 41 -29z m188 -191 c0 -36
-2 -40 -15 -29 -15 13 -20 51 -8 63 15 16 23 4 23 -34z m-100 -23 c0 -58 -17
-104 -42 -112 -27 -8 -35 3 -43 59 -5 32 -4 47 4 47 6 0 11 -9 11 -20 0 -11 7
-20 15 -20 8 0 15 9 15 19 0 11 3 26 6 35 5 12 0 16 -21 16 -15 0 -24 4 -20
10 3 6 22 10 41 10 34 0 34 -1 34 -44z m-476 -37 c50 -59 106 -49 106 19 0 17
10 20 83 25 45 4 102 7 126 7 38 0 42 -2 30 -16 -9 -11 -10 -17 -1 -23 6 -3
14 -26 18 -49 9 -56 41 -80 83 -63 32 14 48 42 57 101 4 22 9 40 13 40 6 -1
45 -57 81 -116 18 -30 8 -38 -51 -48 -24 -4 -39 -12 -39 -20 0 -9 7 -12 20 -9
17 5 20 0 20 -31 0 -31 -3 -36 -24 -36 -31 0 -76 -17 -76 -28 0 -5 19 -8 41
-8 50 1 61 -17 23 -37 -17 -9 -23 -17 -15 -21 6 -4 11 -21 11 -37 0 -39 -39
-79 -78 -79 -43 0 -187 39 -266 72 -136 57 -138 50 -20 -61 l86 -82 -16 -42
c-18 -49 -21 -83 -6 -92 6 -3 10 -23 10 -43 l0 -36 -28 45 c-32 50 -87 99
-247 218 -60 46 -109 88 -108 95 4 28 36 171 38 174 2 2 18 -6 36 -17 40 -25
82 -27 99 -6 7 8 11 15 9 16 -2 0 -23 1 -47 3 -68 4 -132 77 -132 150 0 50 9
67 43 81 41 17 79 3 121 -46z"/>
<path d="M622 1098 c-7 -7 -12 -23 -11 -37 l0 -26 11 23 c12 23 42 30 54 11 3
-6 1 -16 -5 -22 -21 -21 -13 -63 14 -75 14 -7 30 -12 35 -12 16 0 11 27 -5 34
-12 4 -14 14 -9 41 5 27 2 41 -11 55 -20 22 -55 26 -73 8z"/>
</g>
</svg>
